<svg width="23" height="23" viewBox="0 0 23 23" fill="none" xmlns="http://www.w3.org/2000/svg">
<g clip-path="url(#clip0_133_1244)">
<path d="M22.9878 11.7152C22.9878 10.7729 22.9095 10.0852 22.7402 9.37215H11.729V13.6252H18.1923C18.0621 14.6822 17.3584 16.2739 15.7946 17.3435L15.7727 17.4859L19.2543 20.1215L19.4955 20.145C21.7107 18.1458 22.9878 15.2042 22.9878 11.7152Z" fill="#4285F4"/>
<path d="M11.7289 22.921C14.8954 22.921 17.5537 21.9022 19.4954 20.145L15.7945 17.3435C14.8042 18.0184 13.475 18.4895 11.7289 18.4895C8.62754 18.4895 5.9953 16.4904 5.05698 13.7271L4.91945 13.7386L1.2993 16.4763L1.25195 16.605C3.18052 20.3487 7.14195 22.921 11.7289 22.921Z" fill="#34A853"/>
<path d="M5.05695 13.7271C4.80937 13.014 4.66608 12.25 4.66608 11.4605C4.66608 10.6709 4.80937 9.90694 5.04393 9.19385L5.03737 9.04198L1.37185 6.26021L1.25192 6.31595C0.457066 7.86951 0.000976562 9.61408 0.000976562 11.4605C0.000976562 13.3069 0.457066 15.0514 1.25192 16.6049L5.05695 13.7271Z" fill="#FBBC05"/>
<path d="M11.7289 4.43136C13.9311 4.43136 15.4166 5.36093 16.2637 6.13775L19.5735 2.97973C17.5407 1.13332 14.8954 0 11.7289 0C7.14195 0 3.18052 2.57222 1.25195 6.31596L5.04396 9.19385C5.99531 6.4306 8.62755 4.43136 11.7289 4.43136Z" fill="#EB4335"/>
</g>
<defs>
<clipPath id="clip0_133_1244">
<rect width="23" height="23" fill="white"/>
</clipPath>
</defs>
</svg>
